<svg xmlns="http://www.w3.org/2000/svg" viewBox="0 0 485 330" width="485" height="330"
  style="background-color: transparent;">

  <g text-align="center" text-anchor="middle"
    transform="translate(16.00, 16.00) rotate(0.00, 139.00, 30.50)">
    <g id="f755bbf2-17fe-4793-3b3f-b479d1ce539e_svg" class="tl-centered-g">
      <path
        d="M-0.38,19.35 Q-0.53,13.79 -0.59,10.24 T1.20,3.79 10.04,0.11 25.01,-0.77 41.24,-0.85 57.83,-0.78 74.52,-0.67 91.23,-0.55 107.95,-0.42 124.67,-0.30 141.39,-0.26 158.12,-0.30 174.84,-0.34 191.56,-0.38 208.28,-0.42 225.01,-0.46 241.73,-0.50 258.48,-0.54 270.95,1.19 276.18,6.36 277.51,13.42 277.67,20.65 277.68,27.85 277.82,35.05 278.03,42.25 278.23,49.52 276.48,56.12 267.64,59.89 252.66,60.87 236.40,61.06 219.78,61.10 203.06,61.10 186.32,61.09 169.57,61.08 152.83,61.07 136.08,61.13 119.33,61.28 102.58,61.43 85.83,61.59 69.08,61.74 52.33,61.89 35.58,62.04 18.81,62.18 6.31,60.51 1.09,55.25 -0.18,48.00 -0.28,40.53 -0.23,33.08 -0.31,25.63 -0.46,16.90 -0.49,11.66 -0.33,11.22 -0.05,10.84 0.34,10.58 0.79,10.46 1.26,10.49 1.69,10.66 2.04,10.97 2.28,11.37 2.38,11.83 2.33,12.29 2.13,12.72 1.81,13.05 1.39,13.27 0.93,13.34 0.47,13.27 0.06,13.04 -0.26,12.70 -0.46,12.28 -0.50,11.81 -0.40,11.36 -0.16,10.96 0.20,10.66 0.64,10.49 1.10,10.46 1.55,10.59 1.94,10.85 2.22,11.23 2.37,11.67 2.40,11.91 2.29,16.91 2.06,25.63 1.95,33.07 2.08,40.44 2.50,47.52 3.49,53.73 7.34,57.75 18.84,58.97 35.57,58.98 52.32,58.99 69.07,59.00 85.82,59.02 102.57,59.03 119.32,59.04 136.07,59.05 152.82,58.98 169.56,58.83 186.31,58.68 203.05,58.53 219.76,58.37 236.35,58.17 252.47,57.83 266.58,57.15 273.95,54.82 275.15,49.40 275.29,42.27 275.45,35.07 275.49,27.88 275.30,20.76 274.83,13.93 273.80,7.93 269.92,3.98 258.42,2.67 241.72,2.56 225.00,2.43 208.28,2.31 191.56,2.19 174.83,2.07 158.11,1.94 141.39,1.82 124.67,1.78 107.95,1.82 91.23,1.86 74.51,1.90 57.83,1.96 41.26,2.05 25.17,2.28 11.08,2.85 3.72,5.11 2.49,10.39 2.29,16.58 2.16,19.51 2.09,19.81 1.94,20.08 1.74,20.31 1.49,20.48 1.20,20.59 0.90,20.62 0.59,20.59 0.31,20.48 0.06,20.30 -0.15,20.07 -0.29,19.80 -0.36,19.50 Z"
        fill="#cecece" stroke="#cecece" stroke-width="2" pointer-events="none" />
    </g>
    <text font-size="28px" font-family="Source Sans Pro" font-weight="normal" line-height="28px"
      letter-spacing="-0.03em" text-align="center" dominant-baseline="mathematical"
      alignment-baseline="mathematical" text-anchor="middle" transform="translate(33.5, 11.5)"
      fill="#cecece" transform-origin="center center">
      <tspan y="14px" x="105.5">https://paypal.com
</tspan>
    </text>
  </g>
  <g text-align="center" text-anchor="middle"
    transform="translate(22.00, 91.00) rotate(0.00, 134.00, 30.50)">
    <g id="0995dac8-4948-42bf-2e8a-7cfad66bd627_svg" class="tl-centered-g">
      <path
        d="M268.19,41.74 Q268.32,47.11 268.36,50.55 T266.54,56.85 257.52,60.51 242.15,61.42 225.46,61.54 208.39,61.52 191.23,61.46 174.03,61.40 156.83,61.33 139.63,61.30 122.43,61.36 105.23,61.46 88.02,61.56 70.82,61.66 53.62,61.77 36.42,61.87 19.19,61.97 6.41,60.27 1.13,55.04 -0.14,47.84 -0.22,40.45 -0.15,33.08 -0.20,25.71 -0.33,18.34 -0.44,10.90 1.37,4.20 10.40,0.46 25.78,-0.41 42.47,-0.47 59.55,-0.37 76.72,-0.23 93.93,-0.09 111.13,0.06 128.34,0.17 145.55,0.19 162.76,0.16 179.98,0.14 197.19,0.12 214.40,0.09 231.61,0.07 248.84,0.05 261.62,1.79 266.89,6.98 268.15,14.04 268.22,21.27 268.13,28.47 268.16,35.68 268.26,44.12 268.26,49.19 268.11,49.63 267.82,50.00 267.43,50.25 266.98,50.37 266.51,50.34 266.08,50.17 265.73,49.86 265.49,49.46 265.39,49.00 265.45,48.53 265.65,48.11 265.98,47.78 266.39,47.56 266.85,47.49 267.31,47.57 267.72,47.80 268.04,48.14 268.23,48.56 268.28,49.03 268.17,49.49 267.93,49.88 267.57,50.18 267.13,50.35 266.67,50.37 266.22,50.24 265.83,49.97 265.55,49.60 265.41,49.15 265.37,48.92 265.52,44.09 265.79,35.66 265.94,28.47 265.85,21.35 265.47,14.52 264.50,8.51 260.59,4.57 248.78,3.25 231.60,3.11 214.39,2.96 197.18,2.81 179.97,2.66 162.76,2.51 145.55,2.36 128.34,2.26 111.13,2.24 93.92,2.26 76.72,2.29 59.55,2.32 42.50,2.40 25.94,2.62 11.44,3.20 3.88,5.51 2.64,11.05 2.41,18.36 2.17,25.72 2.04,33.08 2.14,40.36 2.54,47.36 3.52,53.51 7.44,57.50 19.23,58.76 36.41,58.83 53.62,58.90 70.82,58.97 88.02,59.04 105.22,59.11 122.43,59.18 139.63,59.21 156.83,59.15 174.03,59.05 191.22,58.94 208.38,58.83 225.42,58.68 241.98,58.39 256.47,57.77 264.03,55.52 265.28,50.38 265.52,44.40 265.66,41.56 265.73,41.27 265.88,41.00 266.08,40.77 266.34,40.60 266.63,40.50 266.93,40.46 267.23,40.50 267.52,40.61 267.77,40.79 267.97,41.02 268.11,41.29 268.18,41.59 Z"
        fill="#cecece" stroke="#cecece" stroke-width="2" pointer-events="none" />
    </g>
    <text font-size="28px" font-family="Source Sans Pro" font-weight="normal" line-height="28px"
      letter-spacing="-0.03em" text-align="center" dominant-baseline="mathematical"
      alignment-baseline="mathematical" text-anchor="middle" transform="translate(15, 11.5)"
      fill="#cecece" transform-origin="center center">
      <tspan y="14px" x="119">service@palypal.com
</tspan>
    </text>
  </g>
  <text font-size="28px" font-family="Caveat Brush" font-weight="normal" line-height="28px"
    letter-spacing="-0.03em" text-align="center" dominant-baseline="mathematical"
    alignment-baseline="mathematical" text-anchor="middle" fill="#cecece"
    transform="translate(303.00, 27.00) rotate(0.00, 22.00, 19.00)">
    <tspan y="14px" x="22">✅
</tspan>
  </text>
  <text font-size="28px" font-family="Caveat Brush" font-weight="normal" line-height="28px"
    letter-spacing="-0.03em" text-align="center" dominant-baseline="mathematical"
    alignment-baseline="mathematical" text-anchor="middle" fill="#cecece"
    transform="translate(301.00, 107.00) rotate(0.00, 22.00, 19.00)">
    <tspan y="14px" x="22">✅
</tspan>
  </text>
  <g text-align="center" text-anchor="middle"
    transform="translate(23.00, 173.00) rotate(0.00, 193.50, 30.50)">
    <g id="76d74ff2-9359-459c-27d1-96ec5f9cc5a6_svg" class="tl-centered-g">
      <path
        d="M387.41,41.04 Q387.51,46.35 387.53,49.75 T385.71,56.00 376.99,59.67 362.30,60.64 346.39,60.83 330.12,60.88 313.77,60.89 297.39,60.89 281.00,60.89 264.62,60.89 248.23,60.89 231.84,60.89 215.45,60.89 199.06,60.92 182.68,61.00 166.29,61.11 149.90,61.22 133.51,61.34 117.13,61.45 100.74,61.56 84.35,61.67 67.96,61.78 51.58,61.90 35.19,62.01 18.78,62.11 6.51,60.42 1.36,55.23 0.12,48.12 0.05,40.83 0.13,33.57 0.08,26.30 -0.05,19.02 -0.16,11.69 1.65,5.05 10.37,1.29 25.07,0.33 40.99,0.17 57.27,0.17 73.64,0.20 90.04,0.25 106.44,0.29 122.84,0.34 139.24,0.38 155.64,0.43 172.04,0.47 188.45,0.49 204.85,0.45 221.25,0.38 237.65,0.32 254.06,0.25 270.46,0.18 286.86,0.12 303.26,0.05 319.67,-0.02 336.07,-0.09 352.47,-0.15 368.90,-0.21 381.18,1.50 386.31,6.65 387.50,13.64 387.53,20.79 387.40,27.91 387.41,35.04 387.47,43.38 387.44,48.40 387.29,48.84 387.00,49.21 386.61,49.47 386.16,49.58 385.69,49.55 385.26,49.37 384.91,49.06 384.67,48.66 384.58,48.20 384.64,47.74 384.84,47.32 385.16,46.98 385.58,46.77 386.04,46.70 386.50,46.78 386.91,47.01 387.23,47.35 387.42,47.78 387.46,48.25 387.36,48.70 387.11,49.10 386.75,49.39 386.31,49.56 385.84,49.58 385.39,49.45 385.01,49.18 384.73,48.80 384.59,48.36 384.56,48.12 384.72,43.34 385.03,35.01 385.22,27.90 385.16,20.86 384.82,14.10 383.91,8.17 380.14,4.27 368.85,3.02 352.47,2.98 336.07,2.93 319.67,2.89 303.26,2.84 286.86,2.79 270.46,2.75 254.06,2.70 237.66,2.66 221.25,2.61 204.85,2.57 188.45,2.55 172.05,2.59 155.64,2.65 139.24,2.72 122.84,2.79 106.44,2.86 90.04,2.92 73.64,2.99 57.28,3.07 41.03,3.19 25.25,3.45 11.43,4.05 4.17,6.37 2.92,11.84 2.69,19.05 2.45,26.31 2.31,33.56 2.42,40.75 2.80,47.65 3.75,53.71 7.54,57.66 18.82,58.88 35.18,58.88 51.57,58.88 67.96,58.88 84.34,58.88 100.73,58.88 117.12,58.88 133.51,58.88 149.89,58.89 166.28,58.89 182.67,58.89 199.06,58.86 215.45,58.78 231.83,58.66 248.22,58.55 264.61,58.44 280.99,58.33 297.38,58.22 313.76,58.10 330.11,57.98 346.34,57.82 362.11,57.52 375.92,56.90 383.18,54.66 384.46,49.57 384.72,43.65 384.88,40.85 384.95,40.55 385.10,40.28 385.31,40.06 385.56,39.89 385.85,39.78 386.15,39.75 386.46,39.79 386.74,39.91 386.99,40.08 387.19,40.32 387.33,40.59 387.39,40.89 Z"
        fill="#cecece" stroke="#cecece" stroke-width="2" pointer-events="none" />
    </g>
    <text font-size="28px" font-family="Source Sans Pro" font-weight="normal" line-height="28px"
      letter-spacing="-0.03em" text-align="center" dominant-baseline="mathematical"
      alignment-baseline="mathematical" text-anchor="middle" transform="translate(17, 11.5)"
      fill="#cecece" transform-origin="center center">
      <tspan y="14px" x="176.5">https://paypal.com.u27sndf.com
</tspan>
    </text>
  </g>
  <text font-size="28px" font-family="Caveat Brush" font-weight="normal" line-height="28px"
    letter-spacing="-0.03em" text-align="center" dominant-baseline="mathematical"
    alignment-baseline="mathematical" text-anchor="middle" fill="#cecece"
    transform="translate(422.00, 184.00) rotate(0.00, 22.00, 19.00)">
    <tspan y="14px" x="22">❌
</tspan>
  </text>
  <text font-size="28px" font-family="Caveat Brush" font-weight="normal" line-height="28px"
    letter-spacing="-0.03em" text-align="center" dominant-baseline="mathematical"
    alignment-baseline="mathematical" text-anchor="middle" fill="#cecece"
    transform="translate(425.00, 268.00) rotate(0.00, 22.00, 19.00)">
    <tspan y="14px" x="22">❌
</tspan>
  </text>
  <g text-align="center" text-anchor="middle"
    transform="translate(22.00, 253.00) rotate(0.00, 196.00, 30.50)">
    <g id="247e1dae-0c00-4f11-0b0a-4f2e84afe107_svg" class="tl-centered-g">
      <path
        d="M-0.03,19.00 Q-0.13,13.50 -0.15,9.98 T1.69,3.58 10.48,-0.10 25.31,-1.01 41.38,-1.12 57.81,-1.08 74.34,-1.00 90.89,-0.91 107.44,-0.82 124.00,-0.73 140.56,-0.64 157.11,-0.55 173.67,-0.46 190.23,-0.40 206.79,-0.39 223.35,-0.42 239.90,-0.44 256.46,-0.46 273.02,-0.48 289.58,-0.51 306.13,-0.53 322.69,-0.55 339.25,-0.57 355.81,-0.60 372.39,-0.61 384.76,1.13 389.96,6.35 391.27,13.50 391.43,20.84 391.42,28.15 391.55,35.47 391.76,42.79 391.94,50.18 390.19,56.85 381.40,60.62 366.55,61.56 350.43,61.69 333.96,61.67 317.40,61.62 300.81,61.55 284.21,61.48 267.61,61.41 251.01,61.34 234.42,61.27 217.82,61.19 201.22,61.15 184.62,61.17 168.02,61.21 151.42,61.25 134.83,61.29 118.23,61.33 101.63,61.38 85.03,61.42 68.43,61.46 51.83,61.50 35.23,61.54 18.61,61.58 6.21,59.84 1.05,54.59 -0.15,47.39 -0.17,39.99 -0.04,32.61 -0.03,25.22 -0.08,16.57 -0.06,11.38 0.10,10.94 0.39,10.57 0.78,10.32 1.23,10.20 1.70,10.23 2.13,10.41 2.48,10.72 2.72,11.12 2.81,11.58 2.75,12.04 2.55,12.47 2.22,12.80 1.80,13.01 1.34,13.08 0.88,13.00 0.47,12.77 0.16,12.43 -0.03,12.00 -0.08,11.54 0.03,11.08 0.28,10.68 0.64,10.39 1.08,10.22 1.54,10.20 1.99,10.33 2.38,10.60 2.65,10.98 2.79,11.43 2.83,11.66 2.66,16.61 2.34,25.26 2.15,32.62 2.20,39.92 2.54,46.94 3.46,53.09 7.26,57.09 18.66,58.35 35.24,58.41 51.84,58.48 68.43,58.56 85.03,58.63 101.63,58.70 118.23,58.77 134.83,58.84 151.43,58.91 168.02,58.98 184.62,59.05 201.22,59.10 217.82,59.08 234.42,59.04 251.02,59.00 267.61,58.96 284.21,58.91 300.81,58.87 317.40,58.82 333.95,58.77 350.40,58.68 366.37,58.44 380.35,57.86 387.67,55.55 388.87,50.06 389.02,42.80 389.18,35.48 389.24,28.18 389.06,20.95 388.59,13.99 387.57,7.89 383.72,3.90 372.33,2.62 355.80,2.53 339.24,2.44 322.69,2.35 306.13,2.26 289.57,2.17 273.01,2.08 256.46,1.99 239.90,1.90 223.34,1.81 206.78,1.72 190.23,1.66 173.67,1.65 157.11,1.67 140.55,1.70 124.00,1.72 107.44,1.74 90.88,1.77 74.34,1.79 57.82,1.83 41.41,1.90 25.48,2.11 11.53,2.66 4.21,4.91 2.93,10.15 2.66,16.29 2.50,19.20 2.43,19.49 2.28,19.76 2.07,19.99 1.82,20.16 1.53,20.26 1.23,20.29 0.92,20.25 0.64,20.14 0.39,19.96 0.19,19.73 0.05,19.45 -0.02,19.15 Z"
        fill="#cecece" stroke="#cecece" stroke-width="2" pointer-events="none" />
    </g>
    <text font-size="28px" font-family="Source Sans Pro" font-weight="normal" line-height="28px"
      letter-spacing="-0.03em" text-align="center" dominant-baseline="mathematical"
      alignment-baseline="mathematical" text-anchor="middle" transform="translate(11, 11.5)"
      fill="#cecece" transform-origin="center center">
      <tspan y="14px" x="185">servicepaypal@emailgolobal.com
</tspan>
    </text>
  </g>
</svg>