<svg xmlns="http://www.w3.org/2000/svg" direction="ltr" width="537.8036030701235" height="538.4813901035773" viewBox="300 253 537.8036030701235 538.4813901035773" stroke-linecap="round" stroke-linejoin="round" style="background-color: transparent;" encoding="UTF-8&quot;"><defs><mask id="hash_pattern_mask">
					<rect x="0" y="0" width="8" height="8" fill="white"/>
					<g strokelinecap="round" stroke="black">
						<line x1="0.6666666666666666" y1="2" x2="2" y2="0.6666666666666666"/>
						<line x1="3.333333333333333" y1="4.666666666666666" x2="4.666666666666666" y2="3.333333333333333"/>
						<line x1="6" y1="7.333333333333333" x2="7.333333333333333" y2="6"/>
					</g>
				</mask><pattern id="hash_pattern" width="8" height="8" patternUnits="userSpaceOnUse">
					<rect x="0" y="0" width="8" height="8" fill="#28292e" mask="url(#hash_pattern_mask)"/>
				</pattern>
</defs><g transform="matrix(1, 0, 0, 1, 332, 285)" opacity="1"><path d="M195.4586,-0.4423 L195.666,56.4272 -0.0938,56.2058 0.4174,0.0959 196.2024,-0.5752 195.7994,55.6983 0.3475,56.7338 0.4193,0.0277  Z" fill="#2c3036"/><path d="M4,-0.0091 L191.4586,-0.4332 Q195.4586,-0.4423 195.4732,3.5577 L195.6514,52.4272 Q195.666,56.4272 191.666,56.4227 L3.9061,56.2104 Q-0.0938,56.2058 -0.0574,52.206 L0.3809,4.0957 Q0.4174,0.0959 4.4174,0.0822 L192.2024,-0.5615 Q196.2024,-0.5752 196.1738,3.4247 L195.828,51.6984 Q195.7994,55.6983 191.7994,55.7195 L4.3474,56.7126 Q0.3475,56.7338 0.3525,52.7338 L0.4142,4.0277 Q0.4193,0.0277 4,-0.0091 " fill="none" stroke="#e1e1e1" stroke-width="2"/><g><text font-size="18px" font-family="Shantell Sans" font-style="normal" font-weight="normal" line-height="24.3px" dominant-baseline="mathematical" alignment-baseline="mathematical" stroke="#212529" stroke-width="2px" fill="#212529" text-align="left" text-anchor="start" transform="translate(28, 0)"><tspan alignment-baseline="mathematical" y="25.35px" x="16">ELF Header</tspan></text><text font-size="18px" font-family="Shantell Sans" font-style="normal" font-weight="normal" line-height="24.3px" dominant-baseline="mathematical" alignment-baseline="mathematical" stroke="none" stroke-width="2px" fill="#e1e1e1" text-align="left" text-anchor="start" transform="translate(28, 0)"><tspan alignment-baseline="mathematical" y="25.35px" x="16">ELF Header</tspan></text></g></g><g transform="matrix(1, 0, 0, 1, 332, 350)" opacity="1"><path d="M195.2358,-0.3323 L194.734,81.2357 0.6388,80.7437 -0.3425,-0.4881 194.9389,0.3766 195.0813,80.456 0.3186,80.749 -0.2623,-0.2876  Z" fill="#33373c"/><path d="M4,-0.0068 L191.2358,-0.3255 Q195.2358,-0.3323 195.2112,3.6677 L194.7586,77.2358 Q194.734,81.2357 190.734,81.2255 L4.6388,80.7538 Q0.6388,80.7437 0.5905,76.744 L-0.2941,3.5116 Q-0.3425,-0.4881 3.6575,-0.4704 L190.939,0.3589 Q194.9389,0.3766 194.946,4.3766 L195.0742,76.4561 Q195.0813,80.456 191.0813,80.4621 L4.3186,80.7429 Q0.3186,80.749 0.29,76.7491 L-0.2336,3.7123 Q-0.2623,-0.2876 4,-0.0068 " fill="none" stroke="#93989f" stroke-width="2"/><g><text font-size="18px" font-family="Shantell Sans" font-style="normal" font-weight="normal" line-height="24.3px" dominant-baseline="mathematical" alignment-baseline="mathematical" stroke="#212529" stroke-width="2px" fill="#212529" text-align="center" text-anchor="start" transform="translate(0, 0)"><tspan alignment-baseline="mathematical" y="25.2px" x="21.900001525878906">Program header
</tspan><tspan alignment-baseline="mathematical" y="49.5px" x="70.5">table</tspan></text><text font-size="18px" font-family="Shantell Sans" font-style="normal" font-weight="normal" line-height="24.3px" dominant-baseline="mathematical" alignment-baseline="mathematical" stroke="none" stroke-width="2px" fill="#e1e1e1" text-align="center" text-anchor="start" transform="translate(0, 0)"><tspan alignment-baseline="mathematical" y="25.2px" x="21.900001525878906">Program header
</tspan><tspan alignment-baseline="mathematical" y="49.5px" x="70.5">table</tspan></text></g></g><g transform="matrix(1, 0, 0, 1, 332, 440)" opacity="1"><path d="M195.4549,-0.6323 L194.7029,56.6338 -0.3544,56.2649 -0.5422,0.1173 195.1623,-0.0824 195.4873,56.8557 0.1875,56.7327 -0.6041,0.501  Z" fill="#253231"/><path d="M4,-0.0129 L191.4549,-0.6194 Q195.4549,-0.6323 195.4023,3.3673 L194.7554,52.6342 Q194.7029,56.6338 190.7029,56.6263 L3.6456,56.2725 Q-0.3544,56.2649 -0.3677,52.2649 L-0.5288,4.1173 Q-0.5422,0.1173 3.4578,0.1132 L191.1623,-0.0783 Q195.1623,-0.0824 195.1852,3.9176 L195.4645,52.8557 Q195.4873,56.8557 191.4873,56.8532 L4.1875,56.7352 Q0.1875,56.7327 0.1312,52.7331 L-0.5478,4.5006 Q-0.6041,0.501 4,-0.0129 " fill="none" stroke="#3b7b5e" stroke-width="2"/><g><text font-size="18px" font-family="Shantell Sans" font-style="normal" font-weight="normal" line-height="24.3px" dominant-baseline="mathematical" alignment-baseline="mathematical" stroke="#212529" stroke-width="2px" fill="#212529" text-align="center" text-anchor="start" transform="translate(54.5, 0)"><tspan alignment-baseline="mathematical" y="25.35px" x="16">.text</tspan></text><text font-size="18px" font-family="Shantell Sans" font-style="normal" font-weight="normal" line-height="24.3px" dominant-baseline="mathematical" alignment-baseline="mathematical" stroke="none" stroke-width="2px" fill="#e1e1e1" text-align="center" text-anchor="start" transform="translate(54.5, 0)"><tspan alignment-baseline="mathematical" y="25.35px" x="16">.text</tspan></text></g></g><g transform="matrix(1, 0, 0, 1, 540.4857, 442.5851) scale(0.6917110755866481, 0.6917110755866481)" opacity="1"><text font-size="18px" font-family="Shantell Sans" font-style="normal" font-weight="normal" line-height="24.3px" dominant-baseline="mathematical" alignment-baseline="mathematical" stroke="#212529" stroke-width="2px" fill="#212529" text-align="left" text-anchor="start"><tspan alignment-baseline="mathematical" y="9.049999999999997px" x="0">This is where our code will
</tspan><tspan alignment-baseline="mathematical" y="33.349999999999994px" x="0">be stored and the CPU will
</tspan><tspan alignment-baseline="mathematical" y="57.65px" x="0">start executing from</tspan></text><text font-size="18px" font-family="Shantell Sans" font-style="normal" font-weight="normal" line-height="24.3px" dominant-baseline="mathematical" alignment-baseline="mathematical" stroke="none" stroke-width="2px" fill="#e1e1e1" text-align="left" text-anchor="start"><tspan alignment-baseline="mathematical" y="9.049999999999997px" x="0">This is where our code will
</tspan><tspan alignment-baseline="mathematical" y="33.349999999999994px" x="0">be stored and the CPU will
</tspan><tspan alignment-baseline="mathematical" y="57.65px" x="0">start executing from</tspan></text></g><g transform="matrix(1, 0, 0, 1, 332, 504.9729)" opacity="1"><path d="M194.5274,0.6603 L195.3379,56.3506 -0.4229,56.1943 0.5,-0.1339 195.1695,0.4664 194.8781,56.8556 0.1342,56.4703 0.0764,0.0743  Z" fill="#3a2e2a"/><path d="M4,0.0136 L190.5274,0.6467 Q194.5274,0.6603 194.5856,4.6599 L195.2797,52.351 Q195.3379,56.3506 191.3379,56.3474 L3.5771,56.1975 Q-0.4229,56.1943 -0.3574,52.1948 L0.4344,3.8656 Q0.5,-0.1339 4.4999,-0.1215 L191.1695,0.4541 Q195.1695,0.4664 195.1488,4.4663 L194.8988,52.8557 Q194.8781,56.8556 190.8781,56.8477 L4.1342,56.4782 Q0.1342,56.4703 0.1301,52.4703 L0.0805,4.0743 Q0.0764,0.0743 4,0.0136 " fill="none" stroke="#bf612e" stroke-width="2"/><g><text font-size="18px" font-family="Shantell Sans" font-style="normal" font-weight="normal" line-height="24.3px" dominant-baseline="mathematical" alignment-baseline="mathematical" stroke="#212529" stroke-width="2px" fill="#212529" text-align="center" text-anchor="start" transform="translate(43.69999694824219, 0)"><tspan alignment-baseline="mathematical" y="25.35px" x="16">.rodata</tspan></text><text font-size="18px" font-family="Shantell Sans" font-style="normal" font-weight="normal" line-height="24.3px" dominant-baseline="mathematical" alignment-baseline="mathematical" stroke="none" stroke-width="2px" fill="#e1e1e1" text-align="center" text-anchor="start" transform="translate(43.69999694824219, 0)"><tspan alignment-baseline="mathematical" y="25.35px" x="16">.rodata</tspan></text></g></g><g transform="matrix(1, 0, 0, 1, 332.8224, 571.5907)" opacity="1"><path d="M194.734,0.2766 L194.3485,56.5824 -0.6477,56.8042 -0.4222,0.2088 194.4616,-0.5971 195.4199,55.8923 -0.1709,55.8915 -0.1464,-0.1066  Z" fill="#3c3934"/><path d="M4,0.0057 L190.734,0.2709 Q194.734,0.2766 194.7066,4.2765 L194.3759,52.5824 Q194.3485,56.5824 190.3485,56.5869 L3.3523,56.7997 Q-0.6477,56.8042 -0.6317,52.8042 L-0.4382,4.2088 Q-0.4222,0.2088 3.5777,0.1923 L190.4616,-0.5805 Q194.4616,-0.5971 194.5294,3.4023 L195.3521,51.8928 Q195.4199,55.8923 191.4199,55.8923 L3.8291,55.8915 Q-0.1709,55.8915 -0.1692,51.8915 L-0.1481,3.8934 Q-0.1464,-0.1066 4,0.0057 " fill="none" stroke="#cba371" stroke-width="2"/><g><text font-size="18px" font-family="Shantell Sans" font-style="normal" font-weight="normal" line-height="24.3px" dominant-baseline="mathematical" alignment-baseline="mathematical" stroke="#212529" stroke-width="2px" fill="#212529" text-align="center" text-anchor="start" transform="translate(54.5, 0)"><tspan alignment-baseline="mathematical" y="25.35px" x="16">.data</tspan></text><text font-size="18px" font-family="Shantell Sans" font-style="normal" font-weight="normal" line-height="24.3px" dominant-baseline="mathematical" alignment-baseline="mathematical" stroke="none" stroke-width="2px" fill="#e1e1e1" text-align="center" text-anchor="start" transform="translate(54.5, 0)"><tspan alignment-baseline="mathematical" y="25.35px" x="16">.data</tspan></text></g></g><g transform="matrix(1, 0, 0, 1, 332.8224, 637.386)" opacity="1"><path d="M195.0972,0.5902 L195.3577,55.9946 -0.6642,56.9503 0.352,0.4438 195.0954,-0.3514 195.4647,55.8204 0.2913,55.9592 0.1793,-0.2256  Z" fill="#3c3934"/><path d="M4,0.0121 L191.0972,0.5781 Q195.0972,0.5902 195.116,4.5902 L195.3389,51.9946 Q195.3577,55.9946 191.3578,56.0141 L3.3357,56.9308 Q-0.6642,56.9503 -0.5923,52.9509 L0.2801,4.4432 Q0.352,0.4438 4.352,0.4275 L191.0954,-0.3351 Q195.0954,-0.3514 195.1217,3.6485 L195.4384,51.8205 Q195.4647,55.8204 191.4647,55.8232 L4.2913,55.9564 Q0.2913,55.9592 0.2833,51.9592 L0.1873,3.7743 Q0.1793,-0.2256 4,0.0121 " fill="none" stroke="#cba371" stroke-width="2"/><g><text font-size="18px" font-family="Shantell Sans" font-style="normal" font-weight="normal" line-height="24.3px" dominant-baseline="mathematical" alignment-baseline="mathematical" stroke="#212529" stroke-width="2px" fill="#212529" text-align="center" text-anchor="start" transform="translate(59.900001525878906, 0)"><tspan alignment-baseline="mathematical" y="25.35px" x="16">.bss</tspan></text><text font-size="18px" font-family="Shantell Sans" font-style="normal" font-weight="normal" line-height="24.3px" dominant-baseline="mathematical" alignment-baseline="mathematical" stroke="none" stroke-width="2px" fill="#e1e1e1" text-align="center" text-anchor="start" transform="translate(59.900001525878906, 0)"><tspan alignment-baseline="mathematical" y="25.35px" x="16">.bss</tspan></text></g></g><g transform="matrix(1, 0, 0, 1, 332.8224, 703.1814)" opacity="1"><path d="M194.7093,0.2146 L194.4734,55.7457 0.2194,55.7128 0.0426,0.325 194.8603,0.5199 195.0403,56.3338 -0.5377,56.8126 -0.6475,0.5027  Z" fill="#3c3934"/><path d="M4,0.0044 L190.7093,0.2101 Q194.7093,0.2146 194.6923,4.2145 L194.4904,51.7458 Q194.4734,55.7457 190.4734,55.7451 L4.2194,55.7135 Q0.2194,55.7128 0.2066,51.7128 L0.0554,4.325 Q0.0426,0.325 4.0426,0.329 L190.8603,0.5159 Q194.8603,0.5199 194.8732,4.5199 L195.0274,52.3338 Q195.0403,56.3338 191.0403,56.3436 L3.4622,56.8028 Q-0.5377,56.8126 -0.5455,52.8126 L-0.6397,4.5027 Q-0.6475,0.5027 4,0.0044 " fill="none" stroke="#cba371" stroke-width="2"/><g><text font-size="18px" font-family="Shantell Sans" font-style="normal" font-weight="normal" line-height="24.3px" dominant-baseline="mathematical" alignment-baseline="mathematical" stroke="#212529" stroke-width="2px" fill="#212529" text-align="center" text-anchor="start" transform="translate(49.099998474121094, 0)"><tspan alignment-baseline="mathematical" y="25.35px" x="16">.stack</tspan></text><text font-size="18px" font-family="Shantell Sans" font-style="normal" font-weight="normal" line-height="24.3px" dominant-baseline="mathematical" alignment-baseline="mathematical" stroke="none" stroke-width="2px" fill="#e1e1e1" text-align="center" text-anchor="start" transform="translate(49.099998474121094, 0)"><tspan alignment-baseline="mathematical" y="25.35px" x="16">.stack</tspan></text></g></g><g transform="matrix(1, 0, 0, 1, 542.9534, 515.7824) scale(0.6917110755866481, 0.6917110755866481)" opacity="1"><text font-size="18px" font-family="Shantell Sans" font-style="normal" font-weight="normal" line-height="24.3px" dominant-baseline="mathematical" alignment-baseline="mathematical" stroke="#212529" stroke-width="2px" fill="#212529" text-align="left" text-anchor="start"><tspan alignment-baseline="mathematical" y="9.2px" x="0">read-only data, such as static
</tspan><tspan alignment-baseline="mathematical" y="33.5px" x="0">variables and string literals</tspan></text><text font-size="18px" font-family="Shantell Sans" font-style="normal" font-weight="normal" line-height="24.3px" dominant-baseline="mathematical" alignment-baseline="mathematical" stroke="none" stroke-width="2px" fill="#e1e1e1" text-align="left" text-anchor="start"><tspan alignment-baseline="mathematical" y="9.2px" x="0">read-only data, such as static
</tspan><tspan alignment-baseline="mathematical" y="33.5px" x="0">variables and string literals</tspan></text></g><g transform="matrix(1, 0, 0, 1, 545.4203, 574.1757) scale(0.6917110755866481, 0.6917110755866481)" opacity="1"><text font-size="18px" font-family="Shantell Sans" font-style="normal" font-weight="normal" line-height="24.3px" dominant-baseline="mathematical" alignment-baseline="mathematical" stroke="#212529" stroke-width="2px" fill="#212529" text-align="left" text-anchor="start"><tspan alignment-baseline="mathematical" y="9.049999999999997px" x="0">Initialized mutable data,
</tspan><tspan alignment-baseline="mathematical" y="33.349999999999994px" x="0">such as global variables and
</tspan><tspan alignment-baseline="mathematical" y="57.65px" x="0">static mutable data</tspan></text><text font-size="18px" font-family="Shantell Sans" font-style="normal" font-weight="normal" line-height="24.3px" dominant-baseline="mathematical" alignment-baseline="mathematical" stroke="none" stroke-width="2px" fill="#e1e1e1" text-align="left" text-anchor="start"><tspan alignment-baseline="mathematical" y="9.049999999999997px" x="0">Initialized mutable data,
</tspan><tspan alignment-baseline="mathematical" y="33.349999999999994px" x="0">such as global variables and
</tspan><tspan alignment-baseline="mathematical" y="57.65px" x="0">static mutable data</tspan></text></g><g transform="matrix(1, 0, 0, 1, 542.1306, 639.1487) scale(0.6917110755866481, 0.6917110755866481)" opacity="1"><text font-size="18px" font-family="Shantell Sans" font-style="normal" font-weight="normal" line-height="24.3px" dominant-baseline="mathematical" alignment-baseline="mathematical" stroke="#212529" stroke-width="2px" fill="#212529" text-align="left" text-anchor="start"><tspan alignment-baseline="mathematical" y="9.049999999999997px" x="0">Uninitialized global
</tspan><tspan alignment-baseline="mathematical" y="33.349999999999994px" x="0">variables, like arrays and
</tspan><tspan alignment-baseline="mathematical" y="57.65px" x="0">structs</tspan></text><text font-size="18px" font-family="Shantell Sans" font-style="normal" font-weight="normal" line-height="24.3px" dominant-baseline="mathematical" alignment-baseline="mathematical" stroke="none" stroke-width="2px" fill="#e1e1e1" text-align="left" text-anchor="start"><tspan alignment-baseline="mathematical" y="9.049999999999997px" x="0">Uninitialized global
</tspan><tspan alignment-baseline="mathematical" y="33.349999999999994px" x="0">variables, like arrays and
</tspan><tspan alignment-baseline="mathematical" y="57.65px" x="0">structs</tspan></text></g><g transform="matrix(1, 0, 0, 1, 542.953, 710.7011) scale(0.6917110755866481, 0.6917110755866481)" opacity="1"><text font-size="18px" font-family="Shantell Sans" font-style="normal" font-weight="normal" line-height="24.3px" dominant-baseline="mathematical" alignment-baseline="mathematical" stroke="#212529" stroke-width="2px" fill="#212529" text-align="left" text-anchor="start"><tspan alignment-baseline="mathematical" y="9.2px" x="0">Local variables and function
</tspan><tspan alignment-baseline="mathematical" y="33.5px" x="0">arguments</tspan></text><text font-size="18px" font-family="Shantell Sans" font-style="normal" font-weight="normal" line-height="24.3px" dominant-baseline="mathematical" alignment-baseline="mathematical" stroke="none" stroke-width="2px" fill="#e1e1e1" text-align="left" text-anchor="start"><tspan alignment-baseline="mathematical" y="9.2px" x="0">Local variables and function
</tspan><tspan alignment-baseline="mathematical" y="33.5px" x="0">arguments</tspan></text></g></svg>