<svg xmlns="http://www.w3.org/2000/svg" direction="ltr" width="394" height="373"
	viewBox="410 239 394 373" stroke-linecap="round" stroke-linejoin="round"
	style="background-color: transparent;" encoding="UTF-8&quot;">
	<defs>
		<mask id="hash_pattern_mask">
			<rect x="0" y="0" width="8" height="8" fill="white" />
			<g strokelinecap="round" stroke="black">
				<line x1="0.6666666666666666" y1="2" x2="2" y2="0.6666666666666666" />
				<line x1="3.333333333333333" y1="4.666666666666666" x2="4.666666666666666"
					y2="3.333333333333333" />
				<line x1="6" y1="7.333333333333333" x2="7.333333333333333" y2="6" />
			</g>
		</mask>
		<pattern id="hash_pattern" width="8" height="8" patternUnits="userSpaceOnUse">
			<rect x="0" y="0" width="8" height="8" fill="#28292e" mask="url(#hash_pattern_mask)" />
		</pattern>
	</defs>
	<path
		d="M7,-0.0236 L322.7849,-1.0885 Q329.7848,-1.1121 329.8007,5.8879 L329.9951,91.7752 Q330.0109,98.7751 323.011,98.7455 L6.7046,97.4042 Q-0.2954,97.3746 -0.3522,90.3748 L-1.0376,5.9095 Q-1.0944,-1.0903 5.9055,-1.0495 L321.8013,0.79 Q328.8012,0.8308 328.7622,7.8307 L328.2963,91.386 Q328.2573,98.3859 321.2573,98.3867 L7.6361,98.4236 Q0.6361,98.4244 0.5312,91.4252 L-0.726,7.5825 Q-0.8309,0.5833 7,-0.0236 "
		fill="none" stroke="#aa3c37" stroke-width="3.5" transform="matrix(1, 0, 0, 1, 443, 482)"
		opacity="1" />
	<path
		d="M7,0.0089 L321.9153,0.4084 Q328.9153,0.4173 328.9485,7.4172 L329.3454,91.1805 Q329.3786,98.1804 322.3786,98.1834 L7.7208,98.3175 Q0.7208,98.3205 0.7154,91.3205 L0.6505,7.4889 Q0.645,0.4889 7.645,0.4607 L321.4945,-0.8033 Q328.4944,-0.8315 328.496,6.1685 L328.5154,90.7204 Q328.517,97.7204 321.517,97.7016 L7.2146,96.8552 Q0.2146,96.8363 0.2415,89.8364 L0.5594,7.0085 Q0.5862,0.0085 7,0.0089 "
		fill="none" stroke="#599f57" stroke-width="3.5" transform="matrix(1, 0, 0, 1, 442, 375)"
		opacity="1" />
	<path
		d="M7,-0.0115 L321.5226,-0.5277 Q328.5226,-0.5392 328.4879,6.4608 L328.0733,90.1589 Q328.0387,97.1588 321.0387,97.1574 L6.0989,97.0943 Q-0.9011,97.0928 -0.7955,90.0936 L0.451,7.4732 Q0.5566,0.4739 7.5566,0.4583 L321.347,-0.2424 Q328.3469,-0.258 328.4498,6.7412 L329.6746,90.0853 Q329.7775,97.0846 322.7775,97.0821 L6.8384,96.9709 Q-0.1616,96.9684 -0.2017,89.9685 L-0.6729,7.7749 Q-0.713,0.775 7,-0.0115 "
		fill="none" stroke="#4156be" stroke-width="3.5" transform="matrix(1, 0, 0, 1, 442, 271)"
		opacity="1" />
	<g transform="matrix(1, 0, 0, 1, 480, 528.7) scale(0.9794238708968462, 0.9794238708968462)"
		opacity="1">
		<text font-size="36px" font-family="Shantell Sans" font-style="normal"
			font-weight="normal" line-height="48.6px" dominant-baseline="mathematical"
			alignment-baseline="mathematical" stroke="#212529" stroke-width="2px" fill="#212529"
			text-align="center" text-anchor="start">
			<tspan alignment-baseline="mathematical" y="18.2px" x="0.5">Machine Mode</tspan>
		</text>
		<text font-size="36px" font-family="Shantell Sans" font-style="normal"
			font-weight="normal" line-height="48.6px" dominant-baseline="mathematical"
			alignment-baseline="mathematical" stroke="none" stroke-width="2px" fill="#e1e1e1"
			text-align="center" text-anchor="start">
			<tspan alignment-baseline="mathematical" y="18.2px" x="0.5">Machine Mode</tspan>
		</text>
	</g>
	<g transform="matrix(1, 0, 0, 1, 460.9852, 421.7) scale(0.9794238708968462, 0.9794238708968462)"
		opacity="1">
		<text font-size="36px" font-family="Shantell Sans" font-style="normal"
			font-weight="normal" line-height="48.6px" dominant-baseline="mathematical"
			alignment-baseline="mathematical" stroke="#212529" stroke-width="2px" fill="#212529"
			text-align="center" text-anchor="start">
			<tspan alignment-baseline="mathematical" y="18.2px" x="0.5">Supervisor Mode</tspan>
		</text>
		<text font-size="36px" font-family="Shantell Sans" font-style="normal"
			font-weight="normal" line-height="48.6px" dominant-baseline="mathematical"
			alignment-baseline="mathematical" stroke="none" stroke-width="2px" fill="#e1e1e1"
			text-align="center" text-anchor="start">
			<tspan alignment-baseline="mathematical" y="18.2px" x="0.5">Supervisor Mode</tspan>
		</text>
	</g>
	<g transform="matrix(1, 0, 0, 1, 515.5637, 317.7) scale(0.9794238708968462, 0.9794238708968462)"
		opacity="1">
		<text font-size="36px" font-family="Shantell Sans" font-style="normal"
			font-weight="normal" line-height="48.6px" dominant-baseline="mathematical"
			alignment-baseline="mathematical" stroke="#212529" stroke-width="2px" fill="#212529"
			text-align="center" text-anchor="start">
			<tspan alignment-baseline="mathematical" y="18.2px" x="0.5">User Mode</tspan>
		</text>
		<text font-size="36px" font-family="Shantell Sans" font-style="normal"
			font-weight="normal" line-height="48.6px" dominant-baseline="mathematical"
			alignment-baseline="mathematical" stroke="none" stroke-width="2px" fill="#e1e1e1"
			text-align="center" text-anchor="start">
			<tspan alignment-baseline="mathematical" y="18.2px" x="0.5">User Mode</tspan>
		</text>
	</g>
	<g transform="matrix(1, 0, 0, 1, 532.9917, 484.7)" opacity="1">
		<text font-size="36px" font-family="Shantell Sans" font-style="normal"
			font-weight="normal" line-height="48.6px" dominant-baseline="mathematical"
			alignment-baseline="mathematical" stroke="#212529" stroke-width="2px" fill="#212529"
			text-align="center" text-anchor="start">
			<tspan alignment-baseline="mathematical" y="18.2px" x="0.5">OpenSBI</tspan>
		</text>
		<text font-size="36px" font-family="Shantell Sans" font-style="normal"
			font-weight="normal" line-height="48.6px" dominant-baseline="mathematical"
			alignment-baseline="mathematical" stroke="none" stroke-width="2px" fill="#93989f"
			text-align="center" text-anchor="start">
			<tspan alignment-baseline="mathematical" y="18.2px" x="0.5">OpenSBI</tspan>
		</text>
	</g>
	<g transform="matrix(1, 0, 0, 1, 512.7167, 377.7)" opacity="1">
		<text font-size="36px" font-family="Shantell Sans" font-style="normal"
			font-weight="normal" line-height="48.6px" dominant-baseline="mathematical"
			alignment-baseline="mathematical" stroke="#212529" stroke-width="2px" fill="#212529"
			text-align="center" text-anchor="start">
			<tspan alignment-baseline="mathematical" y="18.2px" x="0.5">our Kernel</tspan>
		</text>
		<text font-size="36px" font-family="Shantell Sans" font-style="normal"
			font-weight="normal" line-height="48.6px" dominant-baseline="mathematical"
			alignment-baseline="mathematical" stroke="none" stroke-width="2px" fill="#93989f"
			text-align="center" text-anchor="start">
			<tspan alignment-baseline="mathematical" y="18.2px" x="0.5">our Kernel</tspan>
		</text>
	</g>
	<g transform="matrix(1, 0, 0, 1, 473.6, 273.7)" opacity="1">
		<text font-size="36px" font-family="Shantell Sans" font-style="normal"
			font-weight="normal" line-height="48.6px" dominant-baseline="mathematical"
			alignment-baseline="mathematical" stroke="#212529" stroke-width="2px" fill="#212529"
			text-align="center" text-anchor="start">
			<tspan alignment-baseline="mathematical" y="18.2px" x="0.5">User Processes</tspan>
		</text>
		<text font-size="36px" font-family="Shantell Sans" font-style="normal"
			font-weight="normal" line-height="48.6px" dominant-baseline="mathematical"
			alignment-baseline="mathematical" stroke="none" stroke-width="2px" fill="#93989f"
			text-align="center" text-anchor="start">
			<tspan alignment-baseline="mathematical" y="18.2px" x="0.5">User Processes</tspan>
		</text>
	</g>
</svg>